<svg aria-hidden="true" style="position: absolute; width: 0; height: 0; overflow: hidden;" version="1.1" xmlns="http://www.w3.org/2000/svg" xmlns:xlink="http://www.w3.org/1999/xlink">
<defs>
<symbol id="icon-Light-Industrial" viewBox="0 0 48 48">
<path d="M30.812 0.718l-8.811 8.8-3.811-3.8c-0.959-0.96-2.51-0.96-3.47 0s-0.96 2.51 0 3.47l0.54 0.54-4.26 4.27c-5.5 5.5-6.63 13.611-2.66 20.041l-7.18 7.18c-1.551 1.549-1.551 4.070 0 5.619 1.55 1.551 4.070 1.551 5.609 0l7.181-7.189c6.45 4 14.541 2.859 20.050-2.65l4.26-4.27 0.551 0.551c0.959 0.959 2.508 0.959 3.469 0 0.961-0.961 0.961-2.512 0-3.471l-4.311-4.311 9.311-9.31c0.961-0.96 0.961-2.51 0-3.47s-2.51-0.96-3.469 0l-9.311 9.3-9.031-9.020 8.811-8.81c0.961-0.96 0.961-2.51 0-3.47s-2.509-0.96-3.468-0z"></path>
</symbol>
<symbol id="icon-operations" viewBox="0 0 42 32">
<path d="M3.692 21.72c0.176 0.042 0.415 0.259 0.484 0.457l0.35 0.844c0.079 0.162 0.064 0.483-0.030 0.637l-1.397 2.284c-0.299 0.49-0.237 1.184 0.165 1.634l1.183 1.182c0.412 0.366 1.139 0.432 1.613 0.145l2.284-1.397c0.143-0.088 0.45-0.119 0.665-0.018l0.843 0.348c0.17 0.059 0.387 0.297 0.429 0.473l0.627 2.604c0.133 0.552 0.66 1.006 1.226 1.058 0 0 0.347 0.032 0.867 0.032s0.867-0.032 0.868-0.032c0.565-0.051 1.092-0.506 1.225-1.058l0.628-2.604c0.042-0.175 0.258-0.414 0.456-0.483l0.844-0.35c0.149-0.073 0.494-0.058 0.637 0.030l2.284 1.397c0.201 0.123 0.441 0.188 0.696 0.188 0.345 0 0.679-0.121 0.938-0.352l1.182-1.183c0.382-0.429 0.444-1.123 0.145-1.613l-1.397-2.284c-0.094-0.154-0.109-0.475-0.018-0.665l0.348-0.843c0.059-0.17 0.297-0.387 0.473-0.429l2.604-0.627c0.552-0.133 1.006-0.66 1.058-1.226 0 0 0.032-0.347 0.032-0.867s-0.032-0.867-0.032-0.868c-0.051-0.565-0.506-1.092-1.058-1.226l-2.603-0.626c-0.176-0.042-0.415-0.259-0.484-0.457l-0.35-0.844c-0.079-0.162-0.064-0.483 0.030-0.637l1.397-2.284c0.299-0.49 0.237-1.184-0.165-1.634l-1.183-1.182c-0.413-0.367-1.141-0.433-1.613-0.145l-2.284 1.397c-0.143 0.087-0.451 0.12-0.665 0.018l-0.843-0.348c-0.17-0.059-0.386-0.297-0.428-0.473l-0.628-2.604c-0.133-0.552-0.66-1.006-1.226-1.058-0.002 0.001-0.349-0.031-0.869-0.031s-0.867 0.032-0.868 0.032c-0.565 0.051-1.092 0.506-1.226 1.058l-0.626 2.602c-0.042 0.176-0.259 0.415-0.457 0.484l-0.844 0.35c-0.15 0.073-0.494 0.057-0.637-0.030l-2.283-1.397c-0.473-0.288-1.185-0.238-1.634 0.164l-1.182 1.183c-0.382 0.429-0.444 1.123-0.145 1.613l1.397 2.284c0.094 0.154 0.109 0.475 0.018 0.665l-0.348 0.843c-0.059 0.17-0.297 0.387-0.473 0.429l-2.604 0.627c-0.552 0.133-1.006 0.66-1.058 1.226 0.002 0-0.030 0.347-0.030 0.867s0.032 0.867 0.032 0.868c0.051 0.565 0.506 1.092 1.058 1.226l2.602 0.626zM1 19c0-0.458 0.027-0.767 0.028-0.777 0.012-0.135 0.165-0.312 0.296-0.344l2.604-0.627c0.505-0.122 1.014-0.584 1.172-1.047l0.324-0.787c0.228-0.467 0.196-1.153-0.075-1.597l-1.397-2.283c-0.067-0.111-0.048-0.331 0.018-0.406l1.141-1.142c0.091-0.081 0.323-0.101 0.427-0.038l2.284 1.397c0.433 0.265 1.175 0.283 1.568 0.088l0.788-0.326c0.491-0.169 0.953-0.678 1.075-1.184l0.626-2.603c0.032-0.132 0.209-0.285 0.344-0.297 0.010 0 0.319-0.027 0.777-0.027s0.767 0.027 0.777 0.028c0.135 0.012 0.312 0.165 0.344 0.296l0.627 2.603c0.122 0.505 0.583 1.015 1.047 1.173l0.787 0.324c0.457 0.224 1.165 0.189 1.597-0.075l2.283-1.397c0.104-0.063 0.35-0.030 0.406 0.018l1.142 1.141c0.086 0.097 0.105 0.316 0.038 0.427l-1.397 2.284c-0.271 0.443-0.303 1.13-0.088 1.568l0.326 0.788c0.169 0.491 0.678 0.953 1.184 1.075l2.603 0.626c0.132 0.032 0.285 0.209 0.297 0.344 0 0.010 0.027 0.319 0.027 0.777s-0.027 0.767-0.028 0.777c-0.012 0.135-0.165 0.312-0.296 0.344l-2.604 0.627c-0.505 0.122-1.014 0.584-1.172 1.047l-0.324 0.787c-0.228 0.467-0.196 1.153 0.075 1.597l1.397 2.283c0.067 0.111 0.048 0.331-0.018 0.406l-1.141 1.142c-0.054 0.048-0.152 0.079-0.251 0.079-0.069 0-0.133-0.015-0.175-0.041l-2.284-1.397c-0.432-0.264-1.174-0.283-1.568-0.088l-0.788 0.326c-0.491 0.169-0.953 0.679-1.074 1.184l-0.627 2.603c-0.032 0.132-0.209 0.285-0.344 0.297-0.011 0-0.32 0.027-0.778 0.027s-0.767-0.027-0.777-0.028c-0.135-0.012-0.312-0.165-0.344-0.296l-0.627-2.604c-0.122-0.505-0.584-1.014-1.047-1.172l-0.787-0.324c-0.204-0.1-0.451-0.152-0.715-0.152-0.329 0-0.642 0.081-0.882 0.228l-2.283 1.397c-0.104 0.063-0.351 0.029-0.406-0.018l-1.142-1.142c-0.086-0.097-0.105-0.316-0.038-0.427l1.397-2.284c0.271-0.443 0.303-1.13 0.088-1.568l-0.326-0.788c-0.169-0.491-0.678-0.953-1.184-1.075l-2.603-0.626c-0.132-0.032-0.285-0.209-0.297-0.344 0-0.010-0.027-0.319-0.027-0.777zM13 24.5c3.033 0 5.5-2.467 5.5-5.5s-2.467-5.5-5.5-5.5-5.5 2.467-5.5 5.5 2.467 5.5 5.5 5.5zM13 14.5c2.481 0 4.5 2.019 4.5 4.5s-2.019 4.5-4.5 4.5-4.5-2.019-4.5-4.5 2.019-4.5 4.5-4.5zM27.477 5.314c-0.040 0.061-0.185 0.138-0.259 0.138l-1.861-0.018c-0.452 0-0.905 0.321-1.053 0.746 0 0-0.082 0.233-0.172 0.59s-0.128 0.601-0.128 0.601c-0.070 0.451 0.181 0.95 0.584 1.161l1.641 0.86c0.063 0.033 0.156 0.172 0.166 0.273l0.093 0.635c0.015 0.070-0.033 0.23-0.084 0.28l-1.322 1.296c-0.331 0.324-0.418 0.878-0.19 1.313l0.599 1c0.253 0.372 0.801 0.562 1.231 0.428l1.824-0.558c0.099 0 0.198 0.038 0.254 0.083l0.515 0.38c0.060 0.040 0.139 0.187 0.138 0.259l-0.018 1.852c-0.004 0.456 0.316 0.913 0.746 1.063 0 0 0.233 0.082 0.59 0.172s0.601 0.128 0.601 0.128c0.026 0.004 0.13 0.012 0.156 0.012 0.408 0 0.822-0.245 1.005-0.596l0.86-1.641c0.033-0.063 0.172-0.156 0.273-0.166l0.663-0.096c0.1 0 0.218 0.052 0.251 0.086l1.296 1.322c0.315 0.322 0.846 0.437 1.313 0.19l0.999-0.599c0.382-0.26 0.567-0.79 0.429-1.231l-0.552-1.767c-0.021-0.068 0.012-0.232 0.078-0.311l0.38-0.515c0.040-0.061 0.185-0.138 0.259-0.138l1.861 0.018c0.452 0 0.905-0.321 1.053-0.746 0 0 0.082-0.233 0.172-0.59s0.128-0.601 0.128-0.601c0.070-0.451-0.181-0.95-0.584-1.161l-1.641-0.86c-0.063-0.033-0.156-0.172-0.166-0.273l-0.092-0.633c-0.015-0.070 0.033-0.23 0.084-0.28l1.322-1.296c0.331-0.324 0.418-0.878 0.19-1.313l-0.599-1c-0.253-0.371-0.8-0.563-1.231-0.429l-1.825 0.558c-0.099 0-0.198-0.038-0.254-0.083l-0.515-0.38c-0.060-0.040-0.139-0.187-0.138-0.259l0.018-1.852c0.004-0.456-0.316-0.913-0.746-1.063 0 0-0.233-0.082-0.59-0.172s-0.601-0.128-0.601-0.128c-0.026-0.003-0.13-0.011-0.156-0.011-0.408 0-0.822 0.245-1.005 0.596l-0.86 1.641c-0.033 0.063-0.172 0.156-0.273 0.166l-0.663 0.095c-0.1 0-0.218-0.052-0.251-0.086l-1.296-1.322c-0.314-0.321-0.844-0.437-1.313-0.19l-1 0.598c-0.382 0.26-0.567 0.79-0.429 1.231l0.552 1.767c0.021 0.068-0.012 0.232-0.078 0.311l-0.379 0.515zM28.297 5.886l0.343-0.466c0.268-0.317 0.372-0.834 0.248-1.229l-0.551-1.766c-0.005-0.028 0.017-0.091 0.012-0.092l0.948-0.568 0.113 0.017 1.297 1.322c0.23 0.234 0.609 0.386 0.965 0.386 0.082 0 0.161-0.008 0.204-0.019l0.575-0.085c0.412-0.036 0.851-0.328 1.043-0.694l0.859-1.64c0.016-0.025 0.079-0.061 0.12-0.061 0.011 0.001 0.215 0.035 0.513 0.109s0.493 0.142 0.502 0.146c0.031 0.013 0.076 0.078 0.078 0.11l-0.018 1.852c-0.004 0.414 0.245 0.879 0.567 1.089l0.465 0.343c0.309 0.261 0.839 0.371 1.229 0.248l1.774-0.552c0.042 0 0.089 0.026 0.083 0.013l0.568 0.948c0.011 0.026 0 0.092-0.017 0.113l-1.322 1.297c-0.295 0.291-0.448 0.795-0.367 1.169l0.084 0.575c0.036 0.412 0.328 0.851 0.695 1.043l1.64 0.859c0.028 0.018 0.063 0.088 0.061 0.12-0.001 0.011-0.035 0.215-0.109 0.513s-0.142 0.493-0.146 0.502c-0.013 0.031-0.078 0.076-0.11 0.078l-1.862-0.018c-0.411 0-0.871 0.249-1.079 0.567l-0.342 0.465c-0.268 0.317-0.372 0.834-0.248 1.229l0.551 1.766c0.005 0.027-0.017 0.091-0.012 0.092l-0.948 0.568-0.113-0.017-1.297-1.322c-0.23-0.234-0.609-0.386-0.965-0.386-0.082 0-0.161 0.008-0.204 0.019l-0.575 0.085c-0.412 0.036-0.851 0.328-1.043 0.694l-0.859 1.64c-0.016 0.025-0.079 0.061-0.12 0.061v0c-0.011-0.001-0.215-0.035-0.513-0.109-0.297-0.075-0.493-0.142-0.502-0.146-0.031-0.013-0.076-0.078-0.078-0.11l0.018-1.852c0.004-0.414-0.245-0.879-0.567-1.089l-0.465-0.343c-0.222-0.188-0.549-0.3-0.875-0.3-0.126 0-0.246 0.018-0.355 0.052l-1.774 0.552c-0.043 0-0.090-0.023-0.083-0.013l-0.568-0.948c-0.011-0.026 0-0.092 0.017-0.113l1.322-1.297c0.295-0.291 0.448-0.795 0.367-1.169l-0.084-0.574c-0.036-0.412-0.328-0.851-0.695-1.043l-1.64-0.859c-0.028-0.018-0.063-0.088-0.061-0.12 0.001-0.011 0.035-0.215 0.109-0.513 0.075-0.297 0.142-0.493 0.146-0.502 0.013-0.031 0.078-0.076 0.11-0.078l1.862 0.018c0.411 0 0.871-0.249 1.079-0.567zM33 12c1.654 0 3-1.346 3-3s-1.346-3-3-3-3 1.346-3 3 1.346 3 3 3zM33 7c1.103 0 2 0.897 2 2s-0.897 2-2 2-2-0.897-2-2 0.897-2 2-2z"></path>
</symbol>
<symbol id="icon-Engineering" viewBox="0 0 32 32">
<path d="M23.371 29.529c0 0 0.335-2.012-1.731-4.469 2.011-5.641 2.29-10.778 2.29-10.778s4.133 0.95 4.133 5.026c-0.001 6.981-4.692 10.221-4.692 10.221zM11.979 27.078c0 0-2.768-8.883-2.768-12.568 0-1.658 0.187-3.133 0.478-4.472h12.61c0.293 1.34 0.481 2.816 0.481 4.473 0 3.629-2.76 12.567-2.76 12.567h-8.041zM15.99 12.069c-1.418 0-2.568 1.15-2.568 2.569 0 1.418 1.15 2.569 2.568 2.569s2.569-1.15 2.569-2.569c0.001-1.419-1.15-2.569-2.569-2.569zM15.438 0.596v-3.498h1v3.409c1.143 0.832 4.236 3.478 5.635 8.575h-12.16c1.352-4.957 4.296-7.574 5.525-8.486zM8.629 29.529c0 0-4.691-3.24-4.691-10.221 0-4.076 4.133-5.026 4.133-5.026s0.279 5.137 2.289 10.778c-2.067 2.458-1.731 4.469-1.731 4.469zM17.691 30.045l-0.838-0.838-0.893 2.793-1.062-2.793-0.726 1.451-1.062-2.625h5.752l-1.171 2.012z"></path>
</symbol>
<symbol id="icon-Administrative-and-Clerical" viewBox="0 0 42 32">
<path d="M35.652 14.023c-0.264-0.082-0.544 0.062-0.628 0.325-0.083 0.263 0.062 0.544 0.325 0.628 3.908 1.245 5.651 3.102 5.651 6.024 0 2.599-2.371 4.616-3.783 5.588-0.136 0.094-0.217 0.247-0.217 0.412v3.823c-0.73-0.272-2.003-0.89-3.126-2.155-0.117-0.131-0.295-0.191-0.468-0.159-0.285 0.055-0.576 0.133-0.871 0.212-0.51 0.137-1.036 0.279-1.535 0.279-2.568 0-4.366-0.552-6.204-1.903-0.224-0.164-0.535-0.115-0.699 0.107-0.164 0.223-0.116 0.535 0.106 0.699 2.027 1.49 3.996 2.097 6.797 2.097 0.631 0 1.223-0.159 1.795-0.313 0.178-0.049 0.355-0.097 0.53-0.138 1.869 1.974 3.983 2.423 4.075 2.441 0.033 0.007 0.066 0.010 0.1 0.010 0.114 0 0.227-0.039 0.316-0.113 0.117-0.095 0.184-0.237 0.184-0.387v-4.239c2.582-1.841 4-4.057 4-6.261 0-3.381-2.017-5.598-6.348-6.977zM33 13.5c0-7.696-7.018-13.5-16.323-13.5-9.352 0-16.677 5.931-16.677 13.502 0 4.539 3.211 7.791 6 9.759v6.636c0 0.17 0.086 0.327 0.228 0.42 0.083 0.053 0.177 0.080 0.272 0.080 0.069 0 0.139-0.015 0.205-0.044 0.146-0.065 3.559-1.616 6.479-4.809 1.265 0.235 2.696 0.461 3.994 0.461 9.463 0 15.822-5.026 15.822-12.505zM17.177 25.005c-1.31 0-2.799-0.251-4.083-0.496-0.173-0.031-0.351 0.028-0.468 0.159-2.050 2.312-4.459 3.781-5.626 4.414v-6.082c0-0.165-0.081-0.318-0.217-0.412-2.638-1.815-5.783-4.863-5.783-9.086 0-7.011 6.886-12.502 15.677-12.502 8.736 0 15.323 5.374 15.323 12.5 0 6.882-5.957 11.505-14.823 11.505zM16.5 11.5c-1.103 0-2 0.897-2 2s0.897 2 2 2 2-0.897 2-2-0.897-2-2-2zM16.5 14.5c-0.551 0-1-0.448-1-1s0.449-1 1-1 1 0.448 1 1-0.449 1-1 1zM23.5 11.5c-1.103 0-2 0.897-2 2s0.897 2 2 2 2-0.897 2-2-0.897-2-2-2zM23.5 14.5c-0.551 0-1-0.448-1-1s0.449-1 1-1 1 0.448 1 1-0.449 1-1 1zM9.5 11.595c-1.103 0-2 0.897-2 2s0.897 2 2 2 2-0.897 2-2-0.897-2-2-2zM9.5 14.595c-0.551 0-1-0.448-1-1s0.449-1 1-1 1 0.448 1 1-0.449 1-1 1z"></path>
</symbol>
<symbol id="icon-HR" viewBox="0 0 36 32">
<path d="M22.22 20.726c-0.157-0.024-0.317 0.038-0.425 0.155-0.109 0.116-0.156 0.278-0.126 0.435 0.276 1.45 1.205 3.44 4.057 4.679 0.338 0.146 0.86 0.26 1.522 0.403 2.478 0.536 6.622 1.434 7.64 5.232 0.060 0.223 0.262 0.37 0.483 0.37 0.043 0 0.086-0.006 0.13-0.017 0.267-0.072 0.425-0.346 0.354-0.613-1.177-4.387-5.872-5.404-8.395-5.95-0.584-0.127-1.089-0.236-1.336-0.344-1.714-0.744-2.821-1.848-3.301-3.286 4.762 0.354 6.918-1.543 7.013-1.629 0.118-0.107 0.179-0.266 0.161-0.425s-0.11-0.3-0.249-0.38c-2.748-1.57-2.748-6.995-2.748-9.038 0-5.713-3.848-10.242-8.781-10.313-0.014-0.001-0.121-0.003-0.141-0.003 0 0 0 0-0.001 0-5.005 0.028-9.077 4.562-9.077 10.108 0 2.043 0 7.469-2.748 9.038-0.145 0.083-0.238 0.232-0.251 0.398-0.012 0.166 0.060 0.328 0.191 0.431 0.138 0.107 3.188 2.441 6.941 1.732-0.502 1.378-1.594 2.438-3.258 3.161-0.241 0.105-0.721 0.22-1.277 0.352-2.54 0.604-7.269 1.729-8.453 6.147-0.071 0.268 0.087 0.541 0.354 0.613 0.271 0.067 0.541-0.088 0.613-0.354 1.029-3.844 5.217-4.839 7.718-5.435 0.627-0.149 1.122-0.267 1.444-0.406 2.852-1.239 3.78-3.229 4.057-4.679 0.033-0.173-0.027-0.351-0.159-0.467-0.131-0.117-0.312-0.157-0.482-0.104-2.707 0.852-5.208-0.32-6.301-0.97 2.611-2.186 2.611-7.217 2.611-9.457 0-4.997 3.626-9.083 8.12-9.11 0.005 0 0.102 0.006 0.106 0.006 4.432 0.063 7.774 4.066 7.774 9.312 0 2.241 0 7.283 2.622 9.469-0.903 0.516-2.962 1.351-6.402 0.939z"></path>
</symbol>
<symbol id="icon-Manufacturing" viewBox="0 0 28 28">
<path d="M7 0c0.547 0 1 0.453 1 1v13.922l8.375-6.703c0.172-0.141 0.406-0.219 0.625-0.219 0.547 0 1 0.453 1 1v5.922l8.375-6.703c0.172-0.141 0.406-0.219 0.625-0.219 0.547 0 1 0.453 1 1v18c0 0.547-0.453 1-1 1h-26c-0.547 0-1-0.453-1-1v-26c0-0.547 0.453-1 1-1h6z"></path>
</symbol>
<symbol id="icon-banknote" viewBox="0 0 32 32">
<path d="M31.415 10.586l-10-10c-0.496-0.496-1.215-0.695-1.896-0.527-0.359 0.088-0.68 0.273-0.934 0.527-0.227 0.227-0.398 0.508-0.496 0.822-0.453 1.469-1.236 2.746-2.395 3.904-1.548 1.547-3.564 2.719-5.697 3.958-2.264 1.312-4.603 2.672-6.52 4.588-1.629 1.631-2.738 3.445-3.388 5.551-0.219 0.711-0.028 1.48 0.496 2.006l10 10c0.496 0.496 1.215 0.695 1.896 0.527 0.359-0.090 0.68-0.273 0.934-0.527 0.227-0.227 0.398-0.508 0.496-0.824 0.454-1.469 1.237-2.746 2.397-3.904 1.547-1.547 3.562-2.717 5.697-3.955 2.262-1.314 4.602-2.674 6.518-4.59 1.629-1.629 2.738-3.445 3.389-5.551 0.218-0.71 0.026-1.482-0.497-2.005zM12 30c-3.312-3.312-6.688-6.689-10-10 2.842-9.201 15.16-8.799 18-18 3.312 3.311 6.689 6.688 10.002 10-2.843 9.199-15.161 8.799-18.002 18zM19.562 14.9c-0.326-0.273-0.654-0.459-0.984-0.551-0.328-0.092-0.656-0.129-0.988-0.105-0.328 0.025-0.664 0.1-1 0.229-0.336 0.131-0.674 0.273-1.014 0.438-0.537-0.617-1.074-1.227-1.611-1.793 0.242-0.219 0.477-0.33 0.703-0.338 0.227-0.010 0.445 0.014 0.652 0.066 0.211 0.053 0.404 0.098 0.582 0.133 0.18 0.035 0.336-0.004 0.473-0.119 0.145-0.125 0.225-0.287 0.236-0.482 0.010-0.197-0.064-0.389-0.229-0.576-0.211-0.242-0.465-0.389-0.77-0.443-0.301-0.053-0.609-0.049-0.93 0.021-0.316 0.072-0.617 0.191-0.902 0.359s-0.514 0.34-0.684 0.508c-0.065-0.062-0.13-0.123-0.195-0.184-0.072-0.066-0.162-0.102-0.27-0.1-0.109 0-0.199 0.047-0.273 0.133-0.072 0.084-0.105 0.182-0.092 0.285 0.010 0.107 0.053 0.189 0.127 0.252 0.065 0.055 0.13 0.109 0.195 0.166-0.256 0.309-0.467 0.65-0.633 1.010-0.168 0.361-0.268 0.719-0.305 1.066-0.039 0.35-0.002 0.67 0.105 0.967 0.107 0.299 0.305 0.553 0.594 0.793 0.471 0.391 1.025 0.557 1.668 0.52 0.641-0.039 1.332-0.23 2.075-0.629 0.59 0.682 1.182 1.359 1.773 1.988-0.25 0.211-0.469 0.332-0.662 0.371-0.193 0.041-0.365 0.037-0.521-0.010-0.156-0.049-0.301-0.119-0.434-0.209-0.133-0.092-0.264-0.17-0.395-0.234-0.129-0.064-0.262-0.1-0.398-0.102s-0.281 0.064-0.441 0.201c-0.164 0.143-0.246 0.309-0.246 0.496s0.086 0.375 0.254 0.566c0.17 0.191 0.391 0.352 0.658 0.479s0.569 0.207 0.901 0.229c0.332 0.023 0.682-0.027 1.051-0.164 0.371-0.135 0.738-0.379 1.1-0.742 0.174 0.17 0.35 0.332 0.525 0.488 0.074 0.064 0.164 0.096 0.273 0.088 0.105-0.004 0.197-0.053 0.27-0.141 0.074-0.090 0.105-0.189 0.094-0.293-0.010-0.105-0.053-0.186-0.125-0.244-0.176-0.141-0.352-0.289-0.527-0.445 0.299-0.367 0.539-0.754 0.717-1.137 0.178-0.385 0.283-0.756 0.318-1.1 0.035-0.346-0.006-0.658-0.119-0.941-0.112-0.287-0.311-0.533-0.596-0.77zM13.971 15.578c-0.283 0.012-0.53-0.082-0.746-0.291-0.092-0.088-0.156-0.195-0.195-0.322-0.041-0.127-0.055-0.266-0.039-0.418 0.014-0.15 0.059-0.307 0.137-0.465 0.074-0.158 0.184-0.316 0.324-0.469 0.507 0.504 1.013 1.057 1.52 1.629-0.384 0.211-0.718 0.324-1.001 0.336zM18.688 17.58c-0.090 0.166-0.193 0.314-0.314 0.443-0.561-0.566-1.121-1.188-1.68-1.826 0.143-0.064 0.293-0.131 0.455-0.199s0.324-0.113 0.486-0.141c0.166-0.025 0.33-0.018 0.494 0.021 0.162 0.041 0.316 0.129 0.459 0.268 0.141 0.141 0.23 0.287 0.266 0.445 0.039 0.16 0.041 0.322 0.014 0.488-0.029 0.167-0.088 0.333-0.18 0.501zM14.717 22.18c0.197-0.159 0.487-0.151 0.668 0.033 0.196 0.195 0.196 0.514 0 0.709-0.016 0.016-0.033 0.027-0.051 0.041l0.002 0.002c-0.633 0.481-1.153 0.914-1.714 1.475-0.507 0.506-0.965 1.039-1.361 1.58l-0.639 0.875c-0.020 0.036-0.044 0.069-0.074 0.1-0.196 0.195-0.515 0.195-0.71 0-0.17-0.17-0.191-0.432-0.066-0.627l-0.002-0.002 0.684-0.934c0.427-0.584 0.918-1.156 1.461-1.699 0.565-0.567 1.175-1.073 1.8-1.553h0.002zM18.378 7.715c0.506-0.506 0.963-1.037 1.36-1.581l0.664-0.91c0.024-0.043 0.051-0.086 0.088-0.123 0.197-0.197 0.516-0.197 0.713 0 0.187 0.188 0.195 0.485 0.025 0.684l0.002 0.002-0.684 0.938c-0.428 0.584-0.918 1.154-1.461 1.697-0.565 0.565-1.174 1.073-1.799 1.553l-0.004-0.002c-0.199 0.183-0.508 0.179-0.699-0.014-0.197-0.197-0.197-0.518 0-0.715 0.035-0.037 0.076-0.063 0.117-0.086 0.588-0.449 1.155-0.92 1.678-1.443z"></path>
</symbol>
<symbol id="icon-arrow-circle-left" viewBox="0 0 24 28">
<path d="M20 15v-2c0-0.547-0.453-1-1-1h-7.844l2.953-2.953c0.187-0.187 0.297-0.438 0.297-0.703s-0.109-0.516-0.297-0.703l-1.422-1.422c-0.187-0.187-0.438-0.281-0.703-0.281s-0.516 0.094-0.703 0.281l-7.078 7.078c-0.187 0.187-0.281 0.438-0.281 0.703s0.094 0.516 0.281 0.703l7.078 7.078c0.187 0.187 0.438 0.281 0.703 0.281s0.516-0.094 0.703-0.281l1.422-1.422c0.187-0.187 0.281-0.438 0.281-0.703s-0.094-0.516-0.281-0.703l-2.953-2.953h7.844c0.547 0 1-0.453 1-1zM24 14c0 6.625-5.375 12-12 12s-12-5.375-12-12 5.375-12 12-12 12 5.375 12 12z"></path>
</symbol>
<symbol id="icon-arrow-circle-right" viewBox="0 0 24 28">
<path d="M20.078 14c0-0.266-0.094-0.516-0.281-0.703l-7.078-7.078c-0.187-0.187-0.438-0.281-0.703-0.281s-0.516 0.094-0.703 0.281l-1.422 1.422c-0.187 0.187-0.281 0.438-0.281 0.703s0.094 0.516 0.281 0.703l2.953 2.953h-7.844c-0.547 0-1 0.453-1 1v2c0 0.547 0.453 1 1 1h7.844l-2.953 2.953c-0.187 0.187-0.297 0.438-0.297 0.703s0.109 0.516 0.297 0.703l1.422 1.422c0.187 0.187 0.438 0.281 0.703 0.281s0.516-0.094 0.703-0.281l7.078-7.078c0.187-0.187 0.281-0.438 0.281-0.703zM24 14c0 6.625-5.375 12-12 12s-12-5.375-12-12 5.375-12 12-12 12 5.375 12 12z"></path>
</symbol>
<symbol id="icon-facebook" viewBox="0 0 16 28">
<path d="M14.984 0.187v4.125h-2.453c-1.922 0-2.281 0.922-2.281 2.25v2.953h4.578l-0.609 4.625h-3.969v11.859h-4.781v-11.859h-3.984v-4.625h3.984v-3.406c0-3.953 2.422-6.109 5.953-6.109 1.687 0 3.141 0.125 3.563 0.187z"></path>
</symbol>
<symbol id="icon-instagram" viewBox="0 0 24 28">
<path d="M16 14c0-2.203-1.797-4-4-4s-4 1.797-4 4 1.797 4 4 4 4-1.797 4-4zM18.156 14c0 3.406-2.75 6.156-6.156 6.156s-6.156-2.75-6.156-6.156 2.75-6.156 6.156-6.156 6.156 2.75 6.156 6.156zM19.844 7.594c0 0.797-0.641 1.437-1.437 1.437s-1.437-0.641-1.437-1.437 0.641-1.437 1.437-1.437 1.437 0.641 1.437 1.437zM12 4.156c-1.75 0-5.5-0.141-7.078 0.484-0.547 0.219-0.953 0.484-1.375 0.906s-0.688 0.828-0.906 1.375c-0.625 1.578-0.484 5.328-0.484 7.078s-0.141 5.5 0.484 7.078c0.219 0.547 0.484 0.953 0.906 1.375s0.828 0.688 1.375 0.906c1.578 0.625 5.328 0.484 7.078 0.484s5.5 0.141 7.078-0.484c0.547-0.219 0.953-0.484 1.375-0.906s0.688-0.828 0.906-1.375c0.625-1.578 0.484-5.328 0.484-7.078s0.141-5.5-0.484-7.078c-0.219-0.547-0.484-0.953-0.906-1.375s-0.828-0.688-1.375-0.906c-1.578-0.625-5.328-0.484-7.078-0.484zM24 14c0 1.656 0.016 3.297-0.078 4.953-0.094 1.922-0.531 3.625-1.937 5.031s-3.109 1.844-5.031 1.937c-1.656 0.094-3.297 0.078-4.953 0.078s-3.297 0.016-4.953-0.078c-1.922-0.094-3.625-0.531-5.031-1.937s-1.844-3.109-1.937-5.031c-0.094-1.656-0.078-3.297-0.078-4.953s-0.016-3.297 0.078-4.953c0.094-1.922 0.531-3.625 1.937-5.031s3.109-1.844 5.031-1.937c1.656-0.094 3.297-0.078 4.953-0.078s3.297-0.016 4.953 0.078c1.922 0.094 3.625 0.531 5.031 1.937s1.844 3.109 1.937 5.031c0.094 1.656 0.078 3.297 0.078 4.953z"></path>
</symbol>
<symbol id="icon-linkedin" viewBox="0 0 24 28">
<path d="M5.453 9.766v15.484h-5.156v-15.484h5.156zM5.781 4.984c0.016 1.484-1.109 2.672-2.906 2.672v0h-0.031c-1.734 0-2.844-1.188-2.844-2.672 0-1.516 1.156-2.672 2.906-2.672 1.766 0 2.859 1.156 2.875 2.672zM24 16.375v8.875h-5.141v-8.281c0-2.078-0.75-3.5-2.609-3.5-1.422 0-2.266 0.953-2.641 1.875-0.125 0.344-0.172 0.797-0.172 1.266v8.641h-5.141c0.063-14.031 0-15.484 0-15.484h5.141v2.25h-0.031c0.672-1.062 1.891-2.609 4.672-2.609 3.391 0 5.922 2.219 5.922 6.969z"></path>
</symbol>
<symbol id="icon-twitter" viewBox="0 0 26 28">
<path d="M25.312 6.375c-0.688 1-1.547 1.891-2.531 2.609 0.016 0.219 0.016 0.438 0.016 0.656 0 6.672-5.078 14.359-14.359 14.359-2.859 0-5.516-0.828-7.75-2.266 0.406 0.047 0.797 0.063 1.219 0.063 2.359 0 4.531-0.797 6.266-2.156-2.219-0.047-4.078-1.5-4.719-3.5 0.313 0.047 0.625 0.078 0.953 0.078 0.453 0 0.906-0.063 1.328-0.172-2.312-0.469-4.047-2.5-4.047-4.953v-0.063c0.672 0.375 1.453 0.609 2.281 0.641-1.359-0.906-2.25-2.453-2.25-4.203 0-0.938 0.25-1.797 0.688-2.547 2.484 3.062 6.219 5.063 10.406 5.281-0.078-0.375-0.125-0.766-0.125-1.156 0-2.781 2.25-5.047 5.047-5.047 1.453 0 2.766 0.609 3.687 1.594 1.141-0.219 2.234-0.641 3.203-1.219-0.375 1.172-1.172 2.156-2.219 2.781 1.016-0.109 2-0.391 2.906-0.781z"></path>
</symbol>
<symbol id="icon-user-o" viewBox="0 0 24 28">
<path d="M18.766 12.25c2.203 0.641 5.234 2.812 5.234 9.922 0 3.219-2.391 5.828-5.328 5.828h-13.344c-2.938 0-5.328-2.609-5.328-5.828 0-7.109 3.031-9.281 5.234-9.922-0.781-1.234-1.234-2.688-1.234-4.25 0-4.406 3.594-8 8-8s8 3.594 8 8c0 1.563-0.453 3.016-1.234 4.25zM12 2c-3.313 0-6 2.688-6 6s2.688 6 6 6 6-2.688 6-6-2.688-6-6-6zM18.672 26c1.828 0 3.328-1.703 3.328-3.828 0-4.922-1.656-8-4.75-8.156-1.406 1.234-3.234 1.984-5.25 1.984s-3.844-0.75-5.25-1.984c-3.094 0.156-4.75 3.234-4.75 8.156 0 2.125 1.5 3.828 3.328 3.828h13.344z"></path>
</symbol>
<symbol id="icon-briefcase" viewBox="0 0 38 32">
<path d="M37.5 18c-0.276 0-0.5 0.224-0.5 0.5v12c0 0.276-0.224 0.5-0.5 0.5h-35c-0.276 0-0.5-0.224-0.5-0.5v-12c0-0.276-0.224-0.5-0.5-0.5s-0.5 0.224-0.5 0.5v12c0 0.827 0.673 1.5 1.5 1.5h35c0.827 0 1.5-0.673 1.5-1.5v-12c0-0.276-0.224-0.5-0.5-0.5zM25.5 5c0.276 0 0.5-0.224 0.5-0.5v-3c0-0.827-0.673-1.5-1.5-1.5h-11c-0.827 0-1.5 0.673-1.5 1.5v3c0 0.276 0.224 0.5 0.5 0.5s0.5-0.224 0.5-0.5v-3c0-0.276 0.224-0.5 0.5-0.5h11c0.276 0 0.5 0.224 0.5 0.5v3c0 0.276 0.224 0.5 0.5 0.5zM36.5 7h-35c-0.827 0-1.5 0.673-1.5 1.5v4.958c0 2.778 9.456 6.5 19.125 6.5 9.543 0 18.875-3.722 18.875-6.5v-4.958c0-0.827-0.673-1.5-1.5-1.5zM37 13.458c0 1.764-8.457 5.5-17.875 5.5-9.55 0-18.125-3.735-18.125-5.5v-4.958c0-0.276 0.224-0.5 0.5-0.5h35c0.276 0 0.5 0.224 0.5 0.5v4.958zM19.125 23c0.943 0 1.923-0.039 2.914-0.116 0.275-0.021 0.481-0.262 0.459-0.538-0.021-0.275-0.252-0.486-0.538-0.459-2.014 0.157-3.909 0.15-5.919-0.020-0.264-0.027-0.517 0.181-0.54 0.456s0.181 0.517 0.456 0.54c1.076 0.091 2.142 0.137 3.168 0.137z"></path>
</symbol>
<symbol id="icon-wallet" viewBox="0 0 38 32">
<path d="M32.509 7.5c0.276 0 0.5-0.224 0.5-0.5v-1.665c0-0.903-0.735-1.638-1.638-1.638h-2.687l-0.613-1.809c-0.086-0.255-0.36-0.397-0.619-0.318l-14.553 4.424c-0.264 0.081-0.413 0.36-0.333 0.624 0.066 0.216 0.264 0.354 0.479 0.354 0.048 0 0.097-0.007 0.146-0.021l14.089-4.284 1.343 3.965c0.089 0.262 0.375 0.404 0.634 0.313 0.262-0.088 0.402-0.373 0.313-0.634l-0.547-1.615h2.349c0.352 0 0.638 0.286 0.638 0.638v1.666c-0.001 0.276 0.223 0.5 0.499 0.5zM36.5 15c-0.276 0-0.5 0.224-0.5 0.5s0.224 0.5 0.5 0.5c0.351 0 0.5 0.149 0.5 0.5v6c0 0.351-0.149 0.5-0.5 0.5h-8c-0.351 0-0.5-0.149-0.5-0.5v-5c0-0.351 0.149-0.5 0.5-0.5h6c0.276 0 0.5-0.224 0.5-0.5v-6c0-0.911-0.589-1.5-1.5-1.5h-30.5c-1.233 0-2-0.767-2-2s0.767-2 2-2h5.076l-3.026 0.998c-0.262 0.086-0.405 0.369-0.319 0.631 0.069 0.21 0.265 0.343 0.475 0.343 0.052 0 0.104-0.008 0.157-0.025l18.119-5.973c0.262-0.087 0.405-0.369 0.318-0.632-0.086-0.262-0.369-0.405-0.632-0.318l-12.1 3.99c-0.023-0.004-0.044-0.014-0.068-0.014h-8c-1.794 0-3 1.206-3 3v22c0 1.794 1.206 3 3 3h30.5c0.911 0 1.5-0.589 1.5-1.5v-5c0-0.276-0.224-0.5-0.5-0.5s-0.5 0.224-0.5 0.5v5c0 0.351-0.149 0.5-0.5 0.5h-30.5c-1.233 0-2-0.767-2-2v-19.688c0.513 0.433 1.192 0.688 2 0.688h30.5c0.351 0 0.5 0.149 0.5 0.5v5.5h-5.5c-0.911 0-1.5 0.589-1.5 1.5v5c0 0.911 0.589 1.5 1.5 1.5h8c0.911 0 1.5-0.589 1.5-1.5v-6c0-0.911-0.589-1.5-1.5-1.5zM31 20c0 0.552 0.448 1 1 1s1-0.448 1-1c0-0.552-0.448-1-1-1s-1 0.448-1 1z"></path>
</symbol>
<symbol id="icon-map-pin" viewBox="0 0 24 32">
<path d="M12 0c-6.617 0-12 5.394-12 12.022 0 9.927 11.201 19.459 11.678 19.86 0.093 0.079 0.208 0.118 0.322 0.118s0.226-0.038 0.318-0.114c0.477-0.394 11.682-9.762 11.682-19.864 0-6.628-5.383-12.022-12-12.022zM12.002 30.838c-1.841-1.645-11.002-10.259-11.002-18.816 0-6.078 4.935-11.022 11-11.022s11 4.944 11 11.022c0 8.702-9.152 17.193-10.998 18.816zM12 6c-3.309 0-6 2.691-6 6s2.691 6 6 6 6-2.691 6-6-2.691-6-6-6zM12 17c-2.757 0-5-2.243-5-5s2.243-5 5-5 5 2.243 5 5-2.243 5-5 5z"></path>
</symbol>
<symbol id="icon-info_outline" viewBox="0 0 24 24">
<path d="M11.016 9v-2.016h1.969v2.016h-1.969zM12 20.016q3.281 0 5.648-2.367t2.367-5.648-2.367-5.648-5.648-2.367-5.648 2.367-2.367 5.648 2.367 5.648 5.648 2.367zM12 2.016q4.125 0 7.055 2.93t2.93 7.055-2.93 7.055-7.055 2.93-7.055-2.93-2.93-7.055 2.93-7.055 7.055-2.93zM11.016 17.016v-6h1.969v6h-1.969z"></path>
</symbol>
<symbol id="icon-remove_red_eye" viewBox="0 0 24 24">
<path d="M12 9q1.219 0 2.109 0.891t0.891 2.109-0.891 2.109-2.109 0.891-2.109-0.891-0.891-2.109 0.891-2.109 2.109-0.891zM12 17.016q2.063 0 3.539-1.477t1.477-3.539-1.477-3.539-3.539-1.477-3.539 1.477-1.477 3.539 1.477 3.539 3.539 1.477zM12 4.5q3.703 0 6.703 2.063t4.313 5.438q-1.313 3.375-4.313 5.438t-6.703 2.063-6.703-2.063-4.313-5.438q1.313-3.375 4.313-5.438t6.703-2.063z"></path>
</symbol>
<symbol id="icon-x" viewBox="0 0 24 24">
<path d="M5.293 6.707l5.293 5.293-5.293 5.293c-0.391 0.391-0.391 1.024 0 1.414s1.024 0.391 1.414 0l5.293-5.293 5.293 5.293c0.391 0.391 1.024 0.391 1.414 0s0.391-1.024 0-1.414l-5.293-5.293 5.293-5.293c0.391-0.391 0.391-1.024 0-1.414s-1.024-0.391-1.414 0l-5.293 5.293-5.293-5.293c-0.391-0.391-1.024-0.391-1.414 0s-0.391 1.024 0 1.414z"></path>
</symbol>
<symbol id="icon-calendar" viewBox="0 0 26 28">
<path d="M2 26h4.5v-4.5h-4.5v4.5zM7.5 26h5v-4.5h-5v4.5zM2 20.5h4.5v-5h-4.5v5zM7.5 20.5h5v-5h-5v5zM2 14.5h4.5v-4.5h-4.5v4.5zM13.5 26h5v-4.5h-5v4.5zM7.5 14.5h5v-4.5h-5v4.5zM19.5 26h4.5v-4.5h-4.5v4.5zM13.5 20.5h5v-5h-5v5zM8 7v-4.5c0-0.266-0.234-0.5-0.5-0.5h-1c-0.266 0-0.5 0.234-0.5 0.5v4.5c0 0.266 0.234 0.5 0.5 0.5h1c0.266 0 0.5-0.234 0.5-0.5zM19.5 20.5h4.5v-5h-4.5v5zM13.5 14.5h5v-4.5h-5v4.5zM19.5 14.5h4.5v-4.5h-4.5v4.5zM20 7v-4.5c0-0.266-0.234-0.5-0.5-0.5h-1c-0.266 0-0.5 0.234-0.5 0.5v4.5c0 0.266 0.234 0.5 0.5 0.5h1c0.266 0 0.5-0.234 0.5-0.5zM26 6v20c0 1.094-0.906 2-2 2h-22c-1.094 0-2-0.906-2-2v-20c0-1.094 0.906-2 2-2h2v-1.5c0-1.375 1.125-2.5 2.5-2.5h1c1.375 0 2.5 1.125 2.5 2.5v1.5h6v-1.5c0-1.375 1.125-2.5 2.5-2.5h1c1.375 0 2.5 1.125 2.5 2.5v1.5h2c1.094 0 2 0.906 2 2z"></path>
</symbol>
<symbol id="icon-direct-hire" viewBox="0 0 32 32">
<path d="M9 23.771l-1 1v3.229h-1v-2.229l-1.293 1.293-0.707-0.707 1.357-1.357h-2.357v-1h3.357l1-1h-2.357v-1h3.357l5.322-5.322-0.678-0.678 3-1-1 3-0.614-0.614-5.386 5.386v3.229h-1v-2.229zM7.779 21c-1.125-1.726-1.779-3.786-1.779-6 0-6.075 4.925-11 11-11s11 4.925 11 11c0 6.075-4.925 11-11 11-2.214 0-4.274-0.654-6-1.779v-1.072l2.242-2.242c1.086 0.692 2.375 1.093 3.758 1.093 3.866 0 7-3.134 7-7s-3.134-7-7-7c-3.866 0-7 3.134-7 7 0 1.397 0.409 2.699 1.115 3.792l-2.208 2.208h-1.128zM15.497 18.652l-1.527 1.527c0.889 0.521 1.925 0.82 3.030 0.82 3.314 0 6-2.686 6-6s-2.686-6-6-6c-3.314 0-6 2.686-6 6 0 1.12 0.307 2.168 0.841 3.065v0l1.526-1.526-0.951-0.944 1.588-0.454c-0.002-0.047-0.003-0.094-0.003-0.142 0-1.657 1.343-3 3-3s3 1.343 3 3c0 1.657-1.343 3-3 3-0.048 0-0.095-0.001-0.142-0.003l-0.447 1.563-0.915-0.907zM17.144 16.995c1.037-0.074 1.856-0.939 1.856-1.995 0-1.105-0.895-2-2-2-1.056 0-1.921 0.818-1.995 1.856l2.995-0.856-0.856 2.995z"></path>
</symbol>
<symbol id="icon-contract" viewBox="0 0 28 28">
<path d="M10 4h8v-2h-8v2zM28 14v7.5c0 1.375-1.125 2.5-2.5 2.5h-23c-1.375 0-2.5-1.125-2.5-2.5v-7.5h10.5v2.5c0 0.547 0.453 1 1 1h5c0.547 0 1-0.453 1-1v-2.5h10.5zM16 14v2h-4v-2h4zM28 6.5v6h-28v-6c0-1.375 1.125-2.5 2.5-2.5h5.5v-2.5c0-0.828 0.672-1.5 1.5-1.5h9c0.828 0 1.5 0.672 1.5 1.5v2.5h5.5c1.375 0 2.5 1.125 2.5 2.5z"></path>
</symbol>
<symbol id="icon-contract-hire" viewBox="0 0 36 28">
<path d="M3 18c1.313 0 1.313-2 0-2s-1.313 2 0 2zM26.016 17.094c-1.234-1.609-2.438-3.25-3.844-4.719l-1.953 2.188c-1.719 1.953-4.797 1.906-6.469-0.094-1.188-1.437-1.188-3.5 0.031-4.922l2.766-3.219c-0.969-0.5-2.141-0.328-3.187-0.328-0.922 0-1.813 0.375-2.469 1.031l-2.469 2.469h-2.422v8.5c0.688 0 1.312-0.094 1.859 0.438l4.641 4.562c0.953 0.922 2.187 1.734 3.547 1.734 0.703 0 1.453-0.234 1.953-0.734 1.172 0.406 2.531-0.25 2.891-1.453 0.75 0.063 1.437-0.172 1.984-0.688 0.359-0.328 0.828-0.984 0.781-1.5 0.141 0.141 0.484 0.156 0.672 0.156 1.859 0 2.828-1.953 1.687-3.422zM28.5 18h1.5v-8h-1.453l-2.453-2.812c-0.656-0.75-1.641-1.188-2.641-1.188h-2.609c-0.875 0-1.719 0.391-2.281 1.047l-3.266 3.797c-0.578 0.688-0.578 1.656-0.016 2.344 0.891 1.062 2.531 1.078 3.453 0.047l3.016-3.406c0.719-0.797 2.031-0.047 1.703 0.969 0.594 0.688 1.234 1.359 1.813 2.047 0.781 0.969 1.531 1.984 2.297 2.969 0.484 0.625 0.844 1.375 0.938 2.188zM33 18c1.313 0 1.313-2 0-2s-1.313 2 0 2zM36 9v10c0 0.547-0.453 1-1 1h-6.781c-0.562 1.359-1.797 2.266-3.234 2.469-0.672 0.984-1.703 1.734-2.859 1.984-0.859 1.094-2.25 1.75-3.641 1.656-2.578 1.453-5.484 0.187-7.406-1.703l-4.484-4.406h-5.594c-0.547 0-1-0.453-1-1v-10.5c0-0.547 0.453-1 1-1h6.578c1.813-1.813 3.062-3.5 5.781-3.5h1.828c1.016 0 2 0.313 2.828 0.875 0.828-0.562 1.813-0.875 2.828-0.875h2.609c2.969 0 4.203 1.937 6 4h5.547c0.547 0 1 0.453 1 1z"></path>
</symbol>
<symbol id="icon-quotes-left" viewBox="0 0 32 32">
<path d="M7.031 14c3.866 0 7 3.134 7 7s-3.134 7-7 7-7-3.134-7-7l-0.031-1c0-7.732 6.268-14 14-14v4c-2.671 0-5.182 1.040-7.071 2.929-0.364 0.364-0.695 0.751-0.995 1.157 0.357-0.056 0.724-0.086 1.097-0.086zM25.031 14c3.866 0 7 3.134 7 7s-3.134 7-7 7-7-3.134-7-7l-0.031-1c0-7.732 6.268-14 14-14v4c-2.671 0-5.182 1.040-7.071 2.929-0.364 0.364-0.695 0.751-0.995 1.157 0.358-0.056 0.724-0.086 1.097-0.086z"></path>
</symbol>
<symbol id="icon-edit" viewBox="0 0 32 32">
<path d="M1.5 32h29c0.827 0 1.5-0.673 1.5-1.5v-29c0-0.827-0.673-1.5-1.5-1.5h-29c-0.827 0-1.5 0.673-1.5 1.5v29c0 0.827 0.673 1.5 1.5 1.5zM1 1.5c0-0.276 0.225-0.5 0.5-0.5h29c0.275 0 0.5 0.224 0.5 0.5v29c0 0.276-0.225 0.5-0.5 0.5h-29c-0.275 0-0.5-0.224-0.5-0.5v-29zM4 28.479c0.048 0 0.096-0.007 0.143-0.021l10-2.979c0.081-0.024 0.154-0.068 0.213-0.127l10.090-10.205c0.023-0.024 0.035-0.053 0.052-0.080l3.658-3.658c0.607-0.607 0.607-1.595 0-2.203l-5.236-5.234c-0.607-0.607-1.595-0.608-2.202 0l-3.739 3.739c-0.024 0.024-0.036 0.054-0.054 0.081l-10.118 10.119c-0.056 0.056-0.098 0.124-0.122 0.199l-3.16 9.715c-0.058 0.177-0.012 0.371 0.117 0.504 0.095 0.097 0.225 0.15 0.358 0.15zM17.359 8.771l1.040 1.040-8.523 8.563-1.727-0.392 9.21-9.211zM10.5 19.165l8.607-8.646 2.434 2.434-8.745 8.547h-2.296v-2.335zM23.385 14.797l-9.246 9.352-0.576-1.999 8.684-8.489 1.138 1.136zM7.493 18.859l2.007 0.456v2.685c0 0.276 0.224 0.5 0.5 0.5h2.624l0.633 2.2-8.487 2.528 2.723-8.369zM21.425 4.679c0.218-0.217 0.572-0.216 0.788 0l5.235 5.235c0.218 0.217 0.218 0.571 0 0.789l-3.372 3.372-6.023-6.023 3.372-3.373z"></path>
</symbol>
<symbol id="icon-Dependable-Talent" viewBox="0 0 32 32">
<path d="M16 29v0c-7.18 0-13-5.82-13-13s5.82-13 13-13c7.18 0 13 5.82 13 13s-5.82 13-13 13zM16 28c6.627 0 12-5.373 12-12s-5.373-12-12-12c-6.627 0-12 5.373-12 12s5.373 12 12 12v0zM16 27c6.075 0 11-4.925 11-11s-4.925-11-11-11c-6.075 0-11 4.925-11 11s4.925 11 11 11v0zM18.121 18.121c-1.768 1.768-9.192 4.95-9.192 4.95s3.182-7.425 4.95-9.192c1.768-1.768 9.192-4.95 9.192-4.95s-3.182 7.425-4.95 9.192v0zM14.586 17.414c0.781 0.781 2.047 0.781 2.828 0s0.781-2.047 0-2.828c-0.781-0.781-2.047-0.781-2.828 0s-0.781 2.047 0 2.828v0z"></path>
</symbol>
<symbol id="icon-Cut-Costs" viewBox="0 0 38 32">
<path d="M36.002 23.010l0.057-17.089-31.050 0.019-0.001-1.96h32.992v19.031l-1.998-0.001zM34.995 26.017l-1.997-0.002 0.057-17.089-31.050 0.020-0.001-1.96h32.992v19.031zM32.053 28.020h-32.053v-18.030h32.053v18.030zM30.049 11.931h-28.046v14.086h28.045v-14.086zM27.045 24.515c0 0.177 0.044 0.342 0.101 0.5h-11.12c2.766 0 5.009-2.69 5.009-6.010s-2.243-6.010-5.009-6.010h11.119c-0.057 0.158-0.101 0.323-0.101 0.501 0 0.83 0.672 1.502 1.502 1.502 0.178 0 0.343-0.044 0.501-0.101v8.215c-0.158-0.056-0.323-0.101-0.501-0.101-0.829 0.001-1.501 0.674-1.501 1.504zM25.041 16.919c-0.83 0-1.502 0.896-1.502 2.003s0.672 2.003 1.502 2.003 1.502-0.896 1.502-2.003-0.672-2.003-1.502-2.003zM18.123 15.394c0.015 0.029 0.027 0.068 0.037 0.116 0.011 0.048 0.018 0.109 0.021 0.182 0.005 0.073 0.007 0.164 0.007 0.273 0 0.121-0.003 0.224-0.009 0.307-0.007 0.084-0.018 0.153-0.031 0.207-0.016 0.055-0.036 0.095-0.062 0.119-0.027 0.025-0.064 0.038-0.11 0.038s-0.118-0.029-0.219-0.087c-0.101-0.059-0.224-0.121-0.369-0.189s-0.315-0.131-0.507-0.187-0.402-0.084-0.632-0.084c-0.18 0-0.336 0.021-0.469 0.065-0.134 0.044-0.246 0.104-0.335 0.181s-0.157 0.17-0.2 0.277c-0.044 0.108-0.066 0.223-0.066 0.343 0 0.18 0.049 0.335 0.147 0.467s0.229 0.248 0.395 0.35c0.165 0.103 0.352 0.198 0.56 0.288s0.421 0.185 0.638 0.284c0.217 0.101 0.43 0.214 0.639 0.342 0.209 0.127 0.395 0.279 0.557 0.456 0.163 0.178 0.295 0.386 0.395 0.626s0.15 0.522 0.15 0.848c0 0.425-0.080 0.799-0.238 1.119-0.158 0.321-0.373 0.59-0.645 0.805s-0.588 0.376-0.951 0.484c-0.046 0.014-0.096 0.020-0.143 0.031v1.094h-0.985v-0.965c-0.013 0-0.024 0.003-0.037 0.003-0.279 0-0.539-0.023-0.779-0.068s-0.452-0.101-0.635-0.164c-0.184-0.064-0.337-0.132-0.46-0.202s-0.212-0.132-0.266-0.186-0.093-0.132-0.116-0.234-0.035-0.25-0.035-0.442c0-0.129 0.004-0.238 0.013-0.325 0.008-0.088 0.022-0.159 0.041-0.214 0.019-0.054 0.044-0.093 0.075-0.116 0.031-0.022 0.068-0.034 0.109-0.034 0.059 0 0.141 0.034 0.248 0.104 0.106 0.068 0.243 0.145 0.41 0.228s0.366 0.159 0.598 0.228c0.231 0.069 0.5 0.104 0.804 0.104 0.2 0 0.38-0.024 0.538-0.072s0.293-0.116 0.404-0.203c0.11-0.088 0.194-0.197 0.253-0.326s0.088-0.274 0.088-0.433c0-0.184-0.051-0.342-0.15-0.473-0.1-0.132-0.23-0.248-0.391-0.351s-0.343-0.198-0.547-0.287c-0.205-0.090-0.415-0.185-0.632-0.285s-0.428-0.214-0.632-0.341c-0.204-0.127-0.387-0.279-0.547-0.457-0.16-0.177-0.291-0.387-0.391-0.628-0.1-0.242-0.15-0.532-0.15-0.87 0-0.388 0.072-0.729 0.216-1.022 0.144-0.294 0.338-0.538 0.582-0.732s0.532-0.339 0.863-0.435c0.17-0.049 0.346-0.085 0.527-0.109v-1.035h0.985v1.035c0.039 0.005 0.078 0.003 0.117 0.009 0.192 0.029 0.372 0.068 0.539 0.118 0.166 0.050 0.314 0.105 0.443 0.168s0.215 0.113 0.258 0.155c0.039 0.037 0.067 0.072 0.082 0.102zM11.018 19.005c0 3.319 2.242 6.010 5.008 6.010h-11.119c0.056-0.158 0.101-0.323 0.101-0.5 0-0.83-0.673-1.503-1.502-1.503-0.178 0-0.343 0.045-0.501 0.101v-8.215c0.158 0.057 0.323 0.101 0.501 0.101 0.83 0 1.502-0.672 1.502-1.502 0-0.178-0.045-0.343-0.101-0.501h11.119c-2.766-0.001-5.008 2.69-5.008 6.009zM7.011 16.919c-0.83 0-1.502 0.896-1.502 2.003s0.673 2.003 1.502 2.003c0.83 0 1.502-0.896 1.502-2.003s-0.672-2.003-1.502-2.003z"></path>
</symbol>
<symbol id="icon-Access" viewBox="0 0 24 24">
<path d="M18 20.016v-10.031h-12v10.031h12zM18 8.016q0.797 0 1.406 0.586t0.609 1.383v10.031q0 0.797-0.609 1.383t-1.406 0.586h-12q-0.797 0-1.406-0.586t-0.609-1.383v-10.031q0-0.797 0.609-1.383t1.406-0.586h9.094v-2.016q0-1.266-0.914-2.18t-2.18-0.914-2.18 0.914-0.914 2.18h-1.922q0-2.063 1.477-3.539t3.539-1.477 3.539 1.477 1.477 3.539v2.016h0.984zM12 17.016q-0.797 0-1.406-0.609t-0.609-1.406 0.609-1.406 1.406-0.609 1.406 0.609 0.609 1.406-0.609 1.406-1.406 0.609z"></path>
</symbol>
<symbol id="icon-Accelerate-Projects" viewBox="0 0 32 32">
<path d="M21 25h3v4h-15v-4h3v-3h4v-4c-3.309-0.003-6-2.685-6-5.993v-0.007c-3.5-1.5-4-9-4-9h21c0 0-0.5 7.5-4 9v0.007c0 3.31-2.686 5.99-6 5.993v4h4v3zM11 4v7.992c0 2.766 2.239 5.008 5.001 5.008h0.998c2.762 0 5.001-2.235 5.001-5.008v-7.992h-11zM10 4h-2.9c0 0 0.554 5.221 2.9 6.9v-6.9zM22.982 4v6.88c2.346-1.679 2.9-6.88 2.9-6.88h-2.9zM13 23v2h7v-2h-7zM10 26v2h13v-2h-13z"></path>
</symbol>
<symbol id="icon-Increase-Operational-Efficiency" viewBox="0 0 32 32">
<path d="M5.998 5h-0.987v23h20v-0.963l-18.996-0.049-0.017-21.988zM8.011 25h5v-10.875l-5 5v5.875zM14.011 25h5v-9.875l-2 2-3-3v10.875zM20.011 25h5v-15.187l-5 5v10.187zM13.387 11.067l3.62 3.6 7.148-7.112 1.834 1.844-0.044-4.399-4.415 0.023 1.717 1.722-6.242 6.26-3.689-3.703-5.623 5.604 0.939 0.912 4.755-4.751z"></path>
</symbol>
<symbol id="icon-plus" viewBox="0 0 22 28">
<path d="M22 11.5v3c0 0.828-0.672 1.5-1.5 1.5h-6.5v6.5c0 0.828-0.672 1.5-1.5 1.5h-3c-0.828 0-1.5-0.672-1.5-1.5v-6.5h-6.5c-0.828 0-1.5-0.672-1.5-1.5v-3c0-0.828 0.672-1.5 1.5-1.5h6.5v-6.5c0-0.828 0.672-1.5 1.5-1.5h3c0.828 0 1.5 0.672 1.5 1.5v6.5h6.5c0.828 0 1.5 0.672 1.5 1.5z"></path>
</symbol>
<symbol id="icon-minus" viewBox="0 0 22 28">
<path d="M22 11.5v3c0 0.828-0.672 1.5-1.5 1.5h-19c-0.828 0-1.5-0.672-1.5-1.5v-3c0-0.828 0.672-1.5 1.5-1.5h19c0.828 0 1.5 0.672 1.5 1.5z"></path>
</symbol>
<symbol id="icon-Hire-Talent" viewBox="0 0 42 32">
<path d="M41.5 17c-0.276 0-0.5 0.224-0.5 0.5v13c0 0.276-0.224 0.5-0.5 0.5h-39c-0.276 0-0.5-0.224-0.5-0.5v-13c0-0.276-0.224-0.5-0.5-0.5s-0.5 0.224-0.5 0.5v13c0 0.827 0.673 1.5 1.5 1.5h39c0.827 0 1.5-0.673 1.5-1.5v-13c0-0.276-0.224-0.5-0.5-0.5zM40.5 7h-39c-0.827 0-1.5 0.673-1.5 1.5v6c0 0.276 0.224 0.5 0.5 0.5h13.5v3.5c0 0.827 0.673 1.5 1.5 1.5h11c0.827 0 1.5-0.673 1.5-1.5v-3.5h13.5c0.276 0 0.5-0.224 0.5-0.5v-6c0-0.827-0.673-1.5-1.5-1.5zM27 18.5c0 0.276-0.224 0.5-0.5 0.5h-11c-0.276 0-0.5-0.224-0.5-0.5v-3.5h12v3.5zM41 14h-40v-5.5c0-0.276 0.224-0.5 0.5-0.5h39c0.276 0 0.5 0.224 0.5 0.5v5.5zM15.5 0c-0.827 0-1.5 0.673-1.5 1.5v4c0 0.276 0.224 0.5 0.5 0.5s0.5-0.224 0.5-0.5v-4c0-0.276 0.224-0.5 0.5-0.5h11c0.276 0 0.5 0.224 0.5 0.5v4c0 0.276 0.224 0.5 0.5 0.5s0.5-0.224 0.5-0.5v-4c0-0.827-0.673-1.5-1.5-1.5h-11z"></path>
</symbol>
<symbol id="icon-Contact" viewBox="0 0 24 24">
<path d="M11.016 14.016h-2.016q0-1.875 0.703-3.516t1.945-2.859 2.859-1.922 3.492-0.703v1.969q-1.453 0-2.719 0.563t-2.227 1.523-1.5 2.227-0.539 2.719zM18 11.016v-2.016q-1.359 0-2.508 0.68t-1.828 1.805-0.68 2.531h2.016q0-0.844 0.398-1.523t1.078-1.078 1.523-0.398zM6.984 3.984q0-0.797-0.586-1.383t-1.383-0.586q-0.844 0-1.43 0.586t-0.586 1.383q0 0.844 0.586 1.43t1.43 0.586q0.797 0 1.383-0.586t0.586-1.43zM11.438 4.5h-1.969q-0.188 1.078-1.008 1.781t-1.945 0.703h-3q-0.656 0-1.078 0.445t-0.422 1.055v2.531h6v-2.297q1.359-0.422 2.32-1.57t1.102-2.648zM18.984 17.016q0.844 0 1.43-0.586t0.586-1.43-0.586-1.43-1.43-0.586q-0.797 0-1.383 0.586t-0.586 1.43 0.586 1.43 1.383 0.586zM20.484 18h-3q-1.125 0-1.945-0.727t-1.008-1.758h-1.969q0.141 1.5 1.102 2.648t2.32 1.57v2.25h6v-2.484q0-0.609-0.422-1.055t-1.078-0.445z"></path>
</symbol>
</defs>
</svg>
